<svg width="61" height="60" viewBox="0 0 61 60" fill="none" xmlns="http://www.w3.org/2000/svg">
<path d="M30.1745 58.8C46.0803 58.8 58.9745 45.9058 58.9745 30C58.9745 14.0942 46.0803 1.20001 30.1745 1.20001C14.2687 1.20001 1.37454 14.0942 1.37454 30C1.37454 45.9058 14.2687 58.8 30.1745 58.8Z" fill="#171C2A"/>
<path d="M30.1745 60C24.2411 60 18.4409 58.2405 13.5074 54.9441C8.57396 51.6477 4.72879 46.9623 2.45816 41.4805C0.187529 35.9987 -0.406572 29.9667 0.750985 24.1473C1.90854 18.3279 4.76576 12.9824 8.96134 8.78681C13.1569 4.59123 18.5024 1.73401 24.3218 0.576455C30.1413 -0.581101 36.1733 0.0129985 41.655 2.28363C47.1368 4.55426 51.8222 8.39943 55.1186 13.3329C58.4151 18.2664 60.1745 24.0666 60.1745 30C60.165 37.9536 57.0012 45.5787 51.3772 51.2027C45.7532 56.8267 38.1281 59.9905 30.1745 60ZM30.1745 2.40001C24.7158 2.40001 19.3796 4.01872 14.8408 7.05145C10.302 10.0842 6.76445 14.3947 4.67547 19.4379C2.58649 24.4812 2.03992 30.0306 3.10487 35.3845C4.16982 40.7384 6.79847 45.6562 10.6584 49.5162C14.5183 53.3761 19.4362 56.0047 24.79 57.0697C30.1439 58.1346 35.6934 57.5881 40.7366 55.4991C45.7798 53.4101 50.0904 49.8725 53.1231 45.3337C56.1558 40.7949 57.7745 35.4588 57.7745 30C57.765 22.683 54.8541 15.6683 49.6802 10.4944C44.5062 5.32045 37.4916 2.40954 30.1745 2.40001Z" fill="#00D991"/>
<path d="M23.0783 32.2503L22.9045 32.4244C22.8155 32.5135 22.8156 32.6579 22.9047 32.7468L25.5158 35.3542C25.6049 35.4432 25.7492 35.4431 25.8382 35.354L26.012 35.1799C26.101 35.0908 26.1009 34.9465 26.0118 34.8575L23.4008 32.2501C23.3117 32.1611 23.1673 32.1612 23.0783 32.2503Z" fill="white"/>
<path d="M23.1354 30.9108L22.9615 31.0848C22.8724 31.1738 22.8724 31.3182 22.9615 31.4072L25.1167 33.5625C25.2058 33.6515 25.3501 33.6515 25.4392 33.5625L25.6131 33.3885C25.7022 33.2995 25.7022 33.1551 25.6131 33.0661L23.4579 30.9108C23.3688 30.8218 23.2245 30.8218 23.1354 30.9108Z" fill="white"/>
<path d="M37.8254 32.2571L37.6516 32.4312C37.5626 32.5203 37.5627 32.6647 37.6518 32.7536L40.2629 35.361C40.352 35.45 40.4963 35.4499 40.5853 35.3608L40.7592 35.1867C40.8481 35.0976 40.848 34.9533 40.7589 34.8643L38.1479 32.2569C38.0588 32.1679 37.9144 32.168 37.8254 32.2571Z" fill="white"/>
<path d="M37.8643 30.912L37.6902 31.0858C37.6011 31.1748 37.601 31.3191 37.6899 31.4083L39.8433 33.5654C39.9323 33.6545 40.0767 33.6546 40.1658 33.5657L40.3399 33.3919C40.429 33.3029 40.4291 33.1586 40.3401 33.0694L38.1868 30.9123C38.0978 30.8232 37.9534 30.8231 37.8643 30.912Z" fill="white"/>
<path fill-rule="evenodd" clip-rule="evenodd" d="M43.9745 33.87H43.3745C43.2043 32.4495 42.5235 31.1392 41.4589 30.1833C40.3944 29.2275 39.0187 28.6911 37.588 28.6742C36.1574 28.6574 34.7694 29.1611 33.6826 30.0916C32.5958 31.0221 31.8843 32.3159 31.6805 33.732C31.3625 33.804 30.1205 33.87 30.1205 33.87C30.1205 33.87 28.9205 33.81 28.6265 33.744C28.4242 32.3278 27.7139 31.0334 26.6281 30.1019C25.5422 29.1704 24.1549 28.6653 22.7243 28.6807C21.2937 28.6961 19.9176 29.231 18.8521 30.1856C17.7865 31.1403 17.1044 32.4497 16.9325 33.87H16.2605C16.1396 33.87 16.0236 33.9181 15.9381 34.0036C15.8526 34.0891 15.8045 34.2051 15.8045 34.326V34.8C15.8061 34.9189 15.854 35.0324 15.9381 35.1165C16.0221 35.2006 16.1357 35.2485 16.2545 35.25H16.9025C17.0712 36.6709 17.7506 37.982 18.8142 38.939C19.8778 39.8961 21.2531 40.4339 22.6838 40.4523C24.1145 40.4706 25.5031 39.9683 26.5909 39.0388C27.6787 38.1093 28.3915 36.8161 28.5965 35.4C28.9265 35.334 30.0905 35.268 30.0905 35.268C30.0905 35.268 31.3265 35.346 31.6505 35.412C31.8268 36.8535 32.5287 38.1793 33.6218 39.1354C34.7148 40.0915 36.1222 40.6108 37.5743 40.5937C39.0265 40.5766 40.4212 40.0243 41.4915 39.0428C42.5617 38.0612 43.2322 36.7192 43.3745 35.274H43.9745C44.0934 35.2741 44.2076 35.2277 44.2928 35.1447C44.378 35.0618 44.4274 34.9489 44.4305 34.83V34.332C44.4305 34.2111 44.3825 34.0951 44.297 34.0096C44.2115 33.9241 44.0955 33.876 43.9745 33.876V33.87ZM22.7585 39.066C21.8697 39.066 21.0008 38.8024 20.2618 38.3086C19.5228 37.8148 18.9468 37.113 18.6066 36.2918C18.2665 35.4706 18.1775 34.567 18.3509 33.6953C18.5243 32.8235 18.9523 32.0228 19.5808 31.3943C20.2093 30.7658 21.01 30.3378 21.8818 30.1644C22.7535 29.991 23.6571 30.08 24.4783 30.4201C25.2995 30.7602 26.0013 31.3362 26.4952 32.0753C26.989 32.8143 27.2525 33.6832 27.2525 34.572C27.2525 35.7639 26.7791 36.907 25.9363 37.7498C25.0935 38.5925 23.9504 39.066 22.7585 39.066ZM37.4885 39.066C36.5997 39.066 35.7308 38.8024 34.9918 38.3086C34.2528 37.8148 33.6768 37.113 33.3366 36.2918C32.9965 35.4706 32.9075 34.567 33.0809 33.6953C33.2543 32.8235 33.6823 32.0228 34.3108 31.3943C34.9393 30.7658 35.74 30.3378 36.6118 30.1644C37.4835 29.991 38.3871 30.08 39.2083 30.4201C40.0295 30.7602 40.7313 31.3362 41.2252 32.0753C41.719 32.8143 41.9825 33.6832 41.9825 34.572C41.9825 35.7639 41.5091 36.907 40.6663 37.7498C39.8235 38.5925 38.6804 39.066 37.4885 39.066Z" fill="white"/>
<path d="M49.1226 32.172V21.678H45.4325C45.6484 20.5246 45.7867 19.3579 45.8465 18.186L43.6745 19.8C44.8745 18.414 43.6745 11.952 43.6745 11.952C43.6745 11.952 42.0905 15.06 32.2145 14.268C22.3385 13.476 20.9525 17.4 20.9525 17.4C19.7525 16.2 20.9525 14.238 20.9525 14.238C20.5947 14.4033 20.273 14.6376 20.0057 14.9273C19.7384 15.2171 19.5309 15.5566 19.3949 15.9266C19.259 16.2966 19.1973 16.6898 19.2133 17.0836C19.2294 17.4775 19.3229 17.8643 19.4885 18.222L19.5725 18.384H16.3745L18.5825 19.8C17.8868 20.2617 17.352 20.9285 17.0525 21.708H11.1125V32.172L8.95255 34.332L11.1125 36.492L11.7125 46.986H17.3225L16.7225 35.88C16.7285 35.8433 16.7269 35.8057 16.7179 35.7696C16.709 35.7335 16.6928 35.6995 16.6704 35.6698C16.6479 35.6401 16.6197 35.6153 16.5875 35.5967C16.5552 35.5782 16.5195 35.5664 16.4825 35.562C16.4095 35.5516 16.3352 35.5703 16.2758 35.6141C16.2163 35.6578 16.1764 35.7231 16.1645 35.796C16.1585 35.8237 16.1585 35.8523 16.1645 35.88V44.4H13.6505V35.796L12.1745 34.332L13.6445 32.868V24.264H16.4405C16.3745 24.9139 16.3625 25.5681 16.4045 26.22H18.3785C18.4884 25.0216 19.0609 23.9132 19.9745 23.13C23.3345 18.978 37.5605 21.402 37.5605 21.402L39.1385 19.074L38.5385 21.402C41.8865 22.2 42.1745 26.148 42.1745 26.148H43.6745C44.1255 25.5818 44.4802 24.9453 44.7245 24.264H46.5845V32.868L48.0546 34.332L46.5845 35.796V44.4H43.5125L44.1125 46.986H49.7225L49.1226 36.492L51.2825 34.332L49.1226 32.172Z" fill="white"/>
</svg>
