<svg width="366" height="366" viewBox="0 0 366 366" fill="none" xmlns="http://www.w3.org/2000/svg">
<g clip-path="url(#clip0_2010_35)">
<path d="M289.75 61V61C284.865 61 280.255 58.734 277.272 54.8654L248.697 17.812C244.405 12.2885 238.911 7.81435 232.634 4.72832C226.356 1.64229 219.458 0.0253614 212.463 0L153.537 0C146.542 0.0253614 139.644 1.64229 133.366 4.72832C127.089 7.81435 121.595 12.2885 117.303 17.812L88.728 54.8653C85.7445 58.734 81.1354 61 76.25 61V61C56.0347 61.0242 36.6543 69.0654 22.3599 83.3599C8.06545 97.6543 0.0242148 117.035 0 137.25L0 289.75C0.0242148 309.965 8.06545 329.346 22.3599 343.64C36.6543 357.935 56.0347 365.976 76.25 366H289.75C309.965 365.976 329.346 357.935 343.64 343.64C357.935 329.346 365.976 309.965 366 289.75V137.25C365.976 117.035 357.935 97.6543 343.64 83.3599C329.346 69.0654 309.965 61.0242 289.75 61ZM141.459 36.4475C142.887 34.6031 144.718 33.1087 146.811 32.0781C148.904 31.0475 151.204 30.5078 153.537 30.5H212.463C214.796 30.51 217.095 31.0507 219.188 32.0812C221.28 33.1116 223.111 34.6048 224.541 36.4475V36.4475C232.271 46.4682 225.128 61 212.472 61H153.528C140.872 61 133.729 46.4682 141.459 36.4475V36.4475ZM335.5 289.75C335.5 301.884 330.68 313.52 322.1 322.1C313.52 330.68 301.884 335.5 289.75 335.5H76.25C64.1163 335.5 52.4797 330.68 43.8999 322.1C35.3201 313.52 30.5 301.884 30.5 289.75V137.25C30.5 125.116 35.3201 113.48 43.8999 104.9C52.4797 96.3201 64.1163 91.5 76.25 91.5H289.75C301.884 91.5 313.52 96.3201 322.1 104.9C330.68 113.48 335.5 125.116 335.5 137.25V289.75Z" fill="url(#paint0_linear_2010_35)"/>
<path d="M183 122C164.903 122 147.212 127.366 132.165 137.421C117.118 147.475 105.39 161.765 98.465 178.484C91.5396 195.204 89.7276 213.601 93.2581 231.351C96.7887 249.1 105.503 265.404 118.3 278.2C131.096 290.997 147.4 299.711 165.149 303.242C182.898 306.772 201.296 304.96 218.016 298.035C234.735 291.11 249.025 279.382 259.079 264.335C269.134 249.288 274.5 231.597 274.5 213.5C274.476 189.24 264.828 165.981 247.673 148.826C230.519 131.672 207.26 122.024 183 122ZM183 274.5C170.935 274.5 159.142 270.922 149.11 264.22C139.079 257.517 131.26 247.99 126.643 236.844C122.026 225.697 120.818 213.432 123.172 201.599C125.526 189.767 131.335 178.897 139.866 170.366C148.397 161.835 159.267 156.026 171.099 153.672C182.932 151.318 195.197 152.526 206.344 157.143C217.49 161.76 227.017 169.579 233.72 179.61C240.422 189.642 244 201.435 244 213.5C244 229.678 237.573 245.194 226.133 256.633C214.694 268.073 199.178 274.5 183 274.5Z" fill="url(#paint1_linear_2010_35)"/>
</g>
<defs>
<linearGradient id="paint0_linear_2010_35" x1="31.8105" y1="5.00391" x2="353.49" y2="380.654" gradientUnits="userSpaceOnUse">
<stop stop-color="#FD5864"/>
<stop offset="0.524038" stop-color="#F14FB6"/>
<stop offset="1" stop-color="#CD4CEF"/>
</linearGradient>
<linearGradient id="paint1_linear_2010_35" x1="107.405" y1="124.502" x2="268.245" y2="312.327" gradientUnits="userSpaceOnUse">
<stop stop-color="#FD5864"/>
<stop offset="0.524038" stop-color="#F14FB6"/>
<stop offset="1" stop-color="#CD4CEF"/>
</linearGradient>
<clipPath id="clip0_2010_35">
<rect width="366" height="366" fill="white"/>
</clipPath>
</defs>
</svg>
