<svg width="512" height="512" viewBox="0 0 512 512" fill="none" xmlns="http://www.w3.org/2000/svg">
<rect width="512" height="512" rx="72" fill="url(#paint0_linear_2010_20)"/>
<g clip-path="url(#clip0_2010_20)">
<path d="M362.75 134H355.003L321.697 90.812C317.405 85.2885 311.911 80.8144 305.634 77.7283C299.356 74.6423 292.458 73.0254 285.463 73H226.537C219.542 73.0254 212.644 74.6423 206.366 77.7283C200.089 80.8144 194.595 85.2885 190.303 90.812L156.997 134H149.25C129.035 134.024 109.654 142.065 95.3599 156.36C81.0654 170.654 73.0242 190.035 73 210.25L73 362.75C73.0242 382.965 81.0654 402.346 95.3599 416.64C109.654 430.935 129.035 438.976 149.25 439H362.75C382.965 438.976 402.346 430.935 416.64 416.64C430.935 402.346 438.976 382.965 439 362.75V210.25C438.976 190.035 430.935 170.654 416.64 156.36C402.346 142.065 382.965 134.024 362.75 134ZM214.459 109.448C215.887 107.603 217.718 106.109 219.811 105.078C221.904 104.047 224.204 103.508 226.537 103.5H285.463C287.796 103.51 290.095 104.051 292.188 105.081C294.28 106.112 296.111 107.605 297.541 109.448L316.481 134H195.519L214.459 109.448ZM408.5 362.75C408.5 374.884 403.68 386.52 395.1 395.1C386.52 403.68 374.884 408.5 362.75 408.5H149.25C137.116 408.5 125.48 403.68 116.9 395.1C108.32 386.52 103.5 374.884 103.5 362.75V210.25C103.5 198.116 108.32 186.48 116.9 177.9C125.48 169.32 137.116 164.5 149.25 164.5H362.75C374.884 164.5 386.52 169.32 395.1 177.9C403.68 186.48 408.5 198.116 408.5 210.25V362.75Z" fill="white"/>
<path d="M256 195C237.903 195 220.212 200.366 205.165 210.421C190.118 220.475 178.39 234.765 171.465 251.484C164.54 268.204 162.728 286.601 166.258 304.351C169.789 322.1 178.503 338.404 191.3 351.2C204.096 363.997 220.4 372.711 238.149 376.242C255.898 379.772 274.296 377.96 291.016 371.035C307.735 364.11 322.025 352.382 332.079 337.335C342.134 322.288 347.5 304.597 347.5 286.5C347.476 262.24 337.828 238.981 320.673 221.826C303.519 204.672 280.26 195.024 256 195ZM256 347.5C243.935 347.5 232.142 343.922 222.11 337.22C212.079 330.517 204.26 320.99 199.643 309.844C195.026 298.697 193.818 286.432 196.172 274.599C198.526 262.767 204.335 251.897 212.866 243.366C221.397 234.835 232.267 229.026 244.099 226.672C255.932 224.318 268.197 225.526 279.344 230.143C290.49 234.76 300.017 242.579 306.72 252.61C313.422 262.642 317 274.435 317 286.5C317 302.678 310.573 318.194 299.133 329.633C287.694 341.073 272.178 347.5 256 347.5Z" fill="white"/>
</g>
<defs>
<linearGradient id="paint0_linear_2010_20" x1="44.5" y1="7" x2="494.5" y2="532.5" gradientUnits="userSpaceOnUse">
<stop stop-color="#FD5864"/>
<stop offset="0.524038" stop-color="#F14FB6"/>
<stop offset="1" stop-color="#CD4CEF"/>
</linearGradient>
<clipPath id="clip0_2010_20">
<rect width="366" height="366" fill="white" transform="translate(73 73)"/>
</clipPath>
</defs>
</svg>
